<svg version="1.2" xmlns="http://www.w3.org/2000/svg" viewBox="0 0 2200 2200" width="2200" height="2200">
	<style>
		.s0 { fill: #a659d4 } 
		.s1 { fill: #954bdf } 
		.s2 { fill: #ffffff } 
	</style>
	<g id="Background">
	</g>
	<g id="Objects">
		<g>
			<path class="s0" d="m1940 1100c0 49.84-4.34 98.66-12.66 146.11-69.15 394.27-413.26 693.89-827.34 693.89q-19.08 0-37.95-0.84c-446.31-19.85-802.05-387.96-802.05-839.16 0-463.92 376.08-840 840-840 463.92 0 840 376.08 840 840z"/>
			<path class="s1" d="m1927.34 1246.11c-69.15 394.27-413.26 693.89-827.34 693.89q-19.08 0-37.95-0.84c-187.06-187.1-341.85-342.01-343.06-343.4-24.36-21.09-37.6-53.25-33.93-86.61 8.15-74.21 31.67-148.08 85.43-181.54 99.07-61.65 197.41-87.92 197.41-87.92 3.47-10.78 7.36-46.46 9.4-82.98-12.55-13.03-24.98-26.63-38.09-39.52-21.18-20.82-26.42-49.21-32.96-84.96-4.68-2.08-7.35-6.1-9.76-9.78q-0.03-0.05-0.07-0.11c-4.75-2.06-7.44-6.12-9.87-9.83q-0.03-0.05-0.07-0.11c-4.75-2.06-7.44-6.12-9.87-9.82-2.96-4.54-4.13-9.97-5.23-15.27q-5.99-28.6-11.96-57.19c-3-14.32-6.01-28.99-3.98-43.48 0.98-6.85 3.41-14.03 9.04-18.06 5.62-4.03 15.02-3.06 17.84 3.27 0 0-9.12-89.73-9.12-82.18-7.62-8.46-13.65-26.88-11.13-41.12 2.52-14.23 7.05-28.08 9.31-42.35 2.46-15.68 2.21-31.85 6.71-47.07 6.34-21.45 21.51-39.03 36.95-55.22 10.94-11.46 22.25-22.6 34.58-32.53 24.71-19.86 54.16-34.8 85.67-38.33 10.11-1.13 20.31-1.08 30.48-1.03q17.11 0.08 34.23 0.17 17.12-0.09 34.23-0.17c10.17-0.05 20.37-0.1 30.48 1.03 31.51 3.53 60.96 18.47 85.67 38.33 10.77 8.67 20.75 18.26 30.39 28.19 2.01 1.94 358.22 358.15 646.57 646.54z"/>
			<path class="s2" d="m1453.46 1612.68c-62.16 25.42-173.52 55.32-353.46 55.32-179.94 0-291.3-29.9-353.46-55.32-41.33-16.91-66.36-59.15-61.48-103.53 8.15-74.21 31.67-148.08 85.43-181.54 99.07-61.65 197.41-87.92 197.41-87.92 3.47-10.78 7.36-46.46 9.4-82.98-12.55-13.03-24.98-26.64-38.1-39.52-24.96-24.54-27.77-59.61-36.68-104.84-16.38 4.65-21.56-3.14-25.91-9.77-2.96-4.54-4.13-9.97-5.24-15.27q-5.98-28.6-11.95-57.19c-3-14.32-6.01-28.99-3.98-43.48 0.97-6.85 3.41-14.03 9.04-18.06 5.62-4.03 15.02-3.06 17.84 3.27 0 0-9.12-89.73-9.12-82.18-7.62-8.46-13.65-26.88-11.13-41.12 2.52-14.23 7.05-28.08 9.3-42.36 2.47-15.67 2.21-31.84 6.71-47.06 6.35-21.45 21.52-39.04 36.96-55.22 10.94-11.46 22.24-22.6 34.58-32.53 24.71-19.86 54.16-34.8 85.66-38.33 10.12-1.13 20.32-1.08 30.48-1.03q17.11 0.08 34.24 0.17 17.12-0.09 34.23-0.17c10.17-0.05 20.37-0.1 30.48 1.03 31.5 3.53 60.96 18.47 85.66 38.33 12.34 9.93 23.65 21.07 34.58 32.53 15.44 16.18 30.61 33.77 36.96 55.22 4.5 15.22 4.24 31.39 6.71 47.06 2.26 14.28 6.78 28.13 9.3 42.36 2.53 14.24-3.5 32.66-11.12 41.12 0-7.55-9.13 82.18-9.13 82.18 2.82-6.33 12.22-7.3 17.85-3.27 5.62 4.03 8.06 11.21 9.03 18.06 2.03 14.49-0.98 29.16-3.97 43.48q-5.98 28.59-11.96 57.19c-1.11 5.3-2.28 10.73-5.24 15.27-4.35 6.63-9.53 14.42-25.9 9.77-8.92 45.23-11.73 80.3-36.69 104.84-13.12 12.88-25.55 26.48-38.1 39.52 2.04 36.52 5.94 72.2 9.4 82.98 0 0 98.34 26.27 197.41 87.92 53.76 33.46 77.29 107.33 85.44 181.54 4.88 44.38-20.15 86.63-61.48 103.53z"/>
		</g>
	</g>
</svg>